<svg width="33" height="35" viewBox="0 0 33 35" fill="none" xmlns="http://www.w3.org/2000/svg">
<path d="M31.4246 10.7635C30.6143 8.73416 29.4545 6.91172 27.9773 5.34688C26.5 3.78202 24.7795 2.55331 22.8636 1.69487C20.8797 0.805918 18.7726 0.355133 16.6 0.355C14.4285 0.355 12.3215 0.805651 10.3376 1.69441C8.42175 2.55268 6.70125 3.78122 5.2239 5.34588C3.74655 6.91055 2.58654 8.73279 1.7761 10.762C0.936836 12.8632 0.511234 15.0949 0.511108 17.3949C0.510983 19.695 0.936364 21.9269 1.77541 24.0283C2.58566 26.0577 3.74554 27.8801 5.2228 29.4449C6.70005 31.0098 8.42053 32.2385 10.3364 33.0969C12.3204 33.9859 14.4275 34.4367 16.5999 34.4368H16.6002C18.7717 34.4368 20.8786 33.9862 22.8625 33.0974C24.7784 32.2391 26.4988 31.0106 27.9762 29.446C29.4535 27.8813 30.6135 26.0591 31.424 24.0299C32.2632 21.9286 32.6888 19.6969 32.6889 17.3969C32.689 15.0967 32.2636 12.8649 31.4246 10.7635ZM16.6001 32.8501H16.5992C12.7018 32.8499 9.03781 31.2421 6.28209 28.323C3.52642 25.4039 2.00891 21.5229 2.00913 17.395C2.00961 8.87401 8.55505 1.9417 16.6009 1.9417C20.4982 1.94193 24.1622 3.54967 26.9179 6.46875C29.6736 9.38787 31.1911 13.2688 31.1908 17.3968C31.1904 25.9178 24.645 32.8501 16.6001 32.8501Z" fill="#D2AB6B"/>
</svg>
