<svg width="17" height="24" viewBox="0 0 17 24" fill="none" xmlns="http://www.w3.org/2000/svg">
<g clip-path="url(#clip0_1_854)">
<path d="M5.0806 -1C4.56337 -1 4.15836 -0.706421 3.92458 -0.351368C3.70548 -0.023241 3.62313 0.352247 3.62313 0.681511C3.62313 1.01309 3.70664 1.39155 3.92923 1.72131L10.8645 12.0005L3.92583 22.2799L4.75468 22.8394L3.92583 22.2799C3.70324 22.6097 3.61973 22.9882 3.61973 23.3197C3.61973 23.6513 3.70324 24.0298 3.92583 24.3595L4.75097 23.8026L3.92583 24.3595C4.15304 24.6962 4.55099 25 5.0789 25C5.60682 25 6.00476 24.6962 6.23197 24.3595L13.8741 13.0379L13.0452 12.4784L13.8741 13.0379C14.0967 12.7081 14.1802 12.3297 14.1802 11.9981C14.1802 11.6665 14.0967 11.2881 13.8741 10.9583L13.874 10.9581L6.23197 -0.35829C6.01424 -0.680855 5.61795 -1 5.0806 -1ZM4.57439 0.760826L4.57463 0.761175C4.57451 0.761002 4.57439 0.760828 4.57428 0.760656L4.57439 0.760826Z" fill="white" stroke="white" stroke-width="2"/>
</g>
<defs>
<clipPath id="clip0_1_854">
<rect width="16.2" height="24" fill="white" transform="matrix(-1 0 0 -1 17 24)"/>
</clipPath>
</defs>
</svg>
