<svg width="33" height="35" viewBox="0 0 33 35" fill="none" xmlns="http://www.w3.org/2000/svg">
<path d="M31.1801 10.7635C30.3699 8.73416 29.2101 6.91172 27.7328 5.34688C26.2556 3.78202 24.5351 2.55331 22.6192 1.69487C20.6353 0.805918 18.5282 0.355133 16.3556 0.355C14.1841 0.355 12.0771 0.805651 10.0932 1.69441C8.17731 2.55268 6.4568 3.78122 4.97945 5.34588C3.5021 6.91055 2.3421 8.73279 1.53165 10.762C0.69239 12.8632 0.266788 15.0949 0.266663 17.3949C0.266537 19.695 0.691918 21.9269 1.53096 24.0283C2.34122 26.0577 3.50109 27.8801 4.97835 29.4449C6.45561 31.0098 8.17608 32.2385 10.092 33.0969C12.0759 33.9859 14.183 34.4367 16.3554 34.4368H16.3557C18.5272 34.4368 20.6341 33.9862 22.6181 33.0974C24.5339 32.2391 26.2544 31.0106 27.7317 29.446C29.209 27.8813 30.3691 26.0591 31.1795 24.0299C32.0188 21.9286 32.4443 19.6969 32.4445 17.3969C32.4446 15.0967 32.0192 12.8649 31.1801 10.7635ZM16.3557 32.8501H16.3547C12.4574 32.8499 8.79337 31.2421 6.03764 28.323C3.28198 25.4039 1.76447 21.5229 1.76469 17.395C1.76516 8.87401 8.31061 1.9417 16.3564 1.9417C20.2538 1.94193 23.9178 3.54967 26.6734 6.46875C29.4291 9.38787 30.9466 13.2688 30.9464 17.3968C30.9459 25.9178 24.4006 32.8501 16.3557 32.8501Z" fill="#D2AB6B"/>
</svg>
