<svg width="33" height="35" viewBox="0 0 33 35" fill="none" xmlns="http://www.w3.org/2000/svg">
<path d="M30.9358 10.7635C30.1255 8.73416 28.9657 6.91172 27.4884 5.34688C26.0112 3.78202 24.2907 2.55331 22.3748 1.69487C20.3909 0.805918 18.2838 0.355133 16.1112 0.355C13.9397 0.355 11.8327 0.805651 9.84879 1.69441C7.93292 2.55268 6.21242 3.78122 4.73507 5.34588C3.25772 6.91055 2.09771 8.73279 1.28727 10.762C0.448005 12.8632 0.0224036 15.0949 0.0222779 17.3949C0.0221522 19.695 0.447534 21.9269 1.28658 24.0283C2.09683 26.0577 3.25671 27.8801 4.73397 29.4449C6.21122 31.0098 7.9317 32.2385 9.84759 33.0969C11.8316 33.9859 13.9386 34.4367 16.111 34.4368H16.1113C18.2828 34.4368 20.3897 33.9862 22.3737 33.0974C24.2895 32.2391 26.01 31.0106 27.4873 29.446C28.9647 27.8813 30.1247 26.0591 30.9351 24.0299C31.7744 21.9286 32.2 19.6969 32.2001 17.3969C32.2002 15.0967 31.7748 12.8649 30.9358 10.7635ZM16.1113 32.8501H16.1104C12.213 32.8499 8.54898 31.2421 5.79326 28.323C3.03759 25.4039 1.52008 21.5229 1.5203 17.395C1.52078 8.87401 8.06622 1.9417 16.112 1.9417C20.0094 1.94193 23.6734 3.54967 26.429 6.46875C29.1847 9.38787 30.7022 13.2688 30.702 17.3968C30.7016 25.9178 24.1562 32.8501 16.1113 32.8501Z" fill="#D2AB6B"/>
</svg>
