<svg width="33" height="35" viewBox="0 0 33 35" fill="none" xmlns="http://www.w3.org/2000/svg">
<path d="M31.6969 10.7635C30.8867 8.73417 29.7269 6.91173 28.2496 5.34689C26.7723 3.78203 25.0519 2.55332 23.136 1.69488C21.152 0.805929 19.045 0.355144 16.8723 0.355011C14.7008 0.355011 12.5939 0.805663 10.61 1.69442C8.69409 2.55269 6.97358 3.78123 5.49624 5.3459C4.01889 6.91056 2.85888 8.73281 2.04844 10.762C1.20917 12.8632 0.783573 15.0949 0.783447 17.3949C0.783322 19.6951 1.2087 21.9269 2.04774 24.0283C2.858 26.0577 4.01788 27.8801 5.49514 29.4449C6.97239 31.0098 8.69287 32.2385 10.6088 33.097C12.5927 33.9859 14.6998 34.4367 16.8722 34.4368H16.8725C19.044 34.4368 21.1509 33.9862 23.1348 33.0974C25.0507 32.2392 26.7712 31.0106 28.2485 29.446C29.7258 27.8813 30.8859 26.0591 31.6963 24.0299C32.5356 21.9286 32.9611 19.6969 32.9613 17.3969C32.9614 15.0967 32.536 12.865 31.6969 10.7635ZM16.8725 32.8501H16.8715C12.9742 32.8499 9.31015 31.2421 6.55443 28.323C3.79876 25.4039 2.28125 21.523 2.28147 17.395C2.28195 8.87403 8.82739 1.94171 16.8732 1.94171C20.7706 1.94194 24.4346 3.54968 27.1902 6.46876C29.9459 9.38788 31.4634 13.2688 31.4632 17.3968C31.4627 25.9178 24.9173 32.8501 16.8725 32.8501Z" fill="#D2AB6B"/>
</svg>
