<svg width="17" height="24" viewBox="0 0 17 24" fill="none" xmlns="http://www.w3.org/2000/svg">
<g clip-path="url(#clip0_1_858)">
<path d="M11.9194 25.0002C12.4366 25.0002 12.8416 24.7066 13.0754 24.3516C13.2945 24.0234 13.3769 23.6479 13.3769 23.3187C13.3769 22.9871 13.2934 22.6086 13.0708 22.2789L6.13554 11.9997L13.0742 1.72024L12.2453 1.16076L13.0742 1.72024C13.2968 1.39047 13.3803 1.01202 13.3803 0.680437C13.3803 0.348858 13.2968 -0.0295992 13.0742 -0.359362L12.249 0.197605L13.0742 -0.359364C12.847 -0.695971 12.449 -0.999817 11.9211 -0.999817C11.3932 -0.999817 10.9952 -0.695971 10.768 -0.359363L3.12593 10.9623L3.95477 11.5217L3.12593 10.9623C2.90334 11.292 2.81982 11.6705 2.81982 12.0021C2.81982 12.3336 2.90334 12.7121 3.12593 13.0419L3.12604 13.042L10.768 24.3585C10.9858 24.681 11.3821 25.0002 11.9194 25.0002ZM12.4256 23.2394L12.4254 23.239C12.4255 23.2392 12.4256 23.2394 12.4257 23.2395L12.4256 23.2394Z" fill="white" stroke="white" stroke-width="2"/>
</g>
<defs>
<clipPath id="clip0_1_858">
<rect width="16.2" height="24" fill="white"/>
</clipPath>
</defs>
</svg>
