<svg width="11" height="21" viewBox="0 0 11 21" fill="none" xmlns="http://www.w3.org/2000/svg">
<path d="M10.9237 3.52772V0.141175C10.8063 0.141175 10.6889 0.140942 10.5715 0.141208C10.2888 0.141874 10.0061 0.140476 9.72338 0.141241C9.3786 0.142173 9.03389 0.13971 8.68907 0.141275C8.3853 0.142673 8.08144 0.138046 7.7777 0.141374C7.31916 0.1464 6.88391 0.170264 6.44414 0.32027C6.02014 0.464918 5.62216 0.718169 5.2831 1.02191C5.08677 1.19778 4.90504 1.38612 4.74045 1.59551C4.6738 1.68248 4.6117 1.77291 4.55373 1.86643C4.3797 2.14704 4.24223 2.45567 4.1274 2.78288C4.1016 2.85653 4.07625 2.93039 4.05208 3.00461C3.87504 3.54792 3.8692 4.14099 3.8692 4.71193C3.8692 4.78342 3.8692 4.85714 3.8692 4.93256C3.8692 6.06365 3.8692 7.5716 3.8692 7.5716H0.821106V11.2993H3.75921H3.83777V20.6518H7.32579V11.2161L10.4917 11.2613L10.9185 7.59603L7.34144 7.58824V4.75919C7.34144 4.75919 7.33359 3.55268 8.29986 3.53604L10.9237 3.52772Z" fill="#D2AB6B"/>
</svg>
