<svg width="12" height="18" viewBox="0 0 12 18" fill="none" xmlns="http://www.w3.org/2000/svg">
<path d="M11.0781 3.03343C10.1017 1.24867 8.36739 0.158283 6.43876 0.116613C6.35643 0.114816 6.27357 0.114816 6.19121 0.116613C4.26262 0.158283 2.52829 1.24867 1.55183 3.03343C0.553755 4.85774 0.526448 7.04909 1.47877 8.89533L5.4684 16.6299C5.47019 16.6333 5.47199 16.6367 5.47384 16.6401C5.64937 16.9632 5.96383 17.1562 6.31505 17.1562C6.66624 17.1562 6.98069 16.9632 7.15619 16.6401C7.15805 16.6367 7.15984 16.6333 7.16163 16.6299L11.1513 8.89533C12.1035 7.04909 12.0762 4.85774 11.0781 3.03343V3.03343ZM6.31499 7.83693C5.06744 7.83693 4.05249 6.76192 4.05249 5.44055C4.05249 4.11919 5.06744 3.04418 6.31499 3.04418C7.56253 3.04418 8.57748 4.11919 8.57748 5.44055C8.57748 6.76192 7.56257 7.83693 6.31499 7.83693Z" fill="#D2AB6B"/>
</svg>
