<svg width="18" height="14" viewBox="0 0 18 14" fill="none" xmlns="http://www.w3.org/2000/svg">
<path d="M17.7062 1.82676C17.7062 1.80626 17.7196 1.78631 17.7187 1.76605L12.5506 7.04042L17.7125 12.1463C17.7155 12.1098 17.7062 12.073 17.7062 12.0358V1.82676V1.82676Z" fill="#D2AB6B"/>
<path d="M11.7616 7.8521L9.65188 10.0021C9.54512 10.1109 9.40723 10.1654 9.26928 10.1654C9.13419 10.1654 8.9991 10.1132 8.89307 10.0085L6.78906 7.93191L1.59348 13.2362C1.71981 13.2843 1.85541 13.3216 1.99741 13.3216H16.5412C16.7521 13.3216 16.9499 13.2536 17.1218 13.1521L11.7616 7.8521Z" fill="#D2AB6B"/>
<path d="M9.26329 8.77608L17.1505 0.728854C16.9719 0.616399 16.764 0.540962 16.5413 0.540962H1.99746C1.70735 0.540962 1.44151 0.660275 1.23447 0.842243L9.26329 8.77608Z" fill="#D2AB6B"/>
<path d="M0.783417 2.02298V12.0359C0.783417 12.1508 0.808359 12.2616 0.835436 12.3675L5.96657 7.134L0.783417 2.02298Z" fill="#D2AB6B"/>
</svg>
