<svg width="17" height="18" viewBox="0 0 17 18" fill="none" xmlns="http://www.w3.org/2000/svg">
<path d="M15.5813 12.0665C14.5963 12.0665 13.6291 11.9033 12.7126 11.5825C12.2635 11.4203 11.7114 11.5691 11.4373 11.8673L9.62828 13.3137C7.53032 12.1276 6.23801 10.7592 5.13341 8.55382L6.45886 6.68767C6.80322 6.32342 6.92673 5.79134 6.77875 5.29209C6.47457 4.31623 6.32005 3.29232 6.32005 2.24856C6.32009 1.49455 5.74093 0.881119 5.02908 0.881119H2.07442C1.36257 0.881119 0.783417 1.49455 0.783417 2.24852C0.783417 10.891 7.42167 17.922 15.5813 17.922C16.2932 17.922 16.8723 17.3086 16.8723 16.5546V13.4339C16.8723 12.6799 16.2931 12.0665 15.5813 12.0665Z" fill="#D2AB6B"/>
</svg>
