<svg width="44" height="23" viewBox="0 0 44 23" fill="none" xmlns="http://www.w3.org/2000/svg">
<path d="M37.5961 14.3151C35.2115 13.1153 32.3733 12.227 29.2766 11.6893C32.5933 10.5399 34.7722 8.61617 34.7722 6.44093C34.7722 2.92912 29.0943 0.0720215 22.1153 0.0720215C15.1362 0.0720215 9.45832 2.92912 9.45832 6.44093C9.45832 8.61617 11.6373 10.5399 14.954 11.6893C11.8573 12.227 9.01909 13.1153 6.63454 14.3151C2.49948 16.3959 0.222168 19.1624 0.222168 22.105H3.64297C3.64297 16.9796 11.9296 12.8098 22.1153 12.8098C32.301 12.8098 40.5876 16.9796 40.5876 22.105H44.0084C44.0084 19.1624 41.7311 16.3959 37.5961 14.3151ZM22.1153 11.0885C17.0225 11.0885 12.8791 9.00364 12.8791 6.44093C12.8791 3.87822 17.0225 1.79335 22.1153 1.79335C27.2081 1.79335 31.3514 3.87822 31.3514 6.44093C31.3514 9.00364 27.2081 11.0885 22.1153 11.0885Z" fill="#FFFFFC"/>
</svg>
