<svg width="18" height="20" viewBox="0 0 18 20" fill="none" xmlns="http://www.w3.org/2000/svg">
<path d="M13.7231 6.59136C14.2982 6.59136 14.7644 6.09759 14.7644 5.48849C14.7644 4.8794 14.2982 4.38563 13.7231 4.38563C13.1481 4.38563 12.6819 4.8794 12.6819 5.48849C12.6819 6.09759 13.1481 6.59136 13.7231 6.59136Z" fill="#D2AB6B"/>
<path d="M9.11128 15.1856C6.6177 15.1856 4.58905 13.0368 4.58905 10.3958C4.58905 7.75463 6.61773 5.60594 9.11128 5.60594C11.6048 5.60594 13.6336 7.75466 13.6336 10.3958C13.6336 13.0369 11.6049 15.1856 9.11128 15.1856ZM9.11128 7.10368C7.39744 7.10368 6.00311 8.58051 6.00311 10.3958C6.00311 12.211 7.39744 13.6879 9.11128 13.6879C10.8252 13.6879 12.2195 12.211 12.2195 10.3958C12.2195 8.58051 10.8252 7.10368 9.11128 7.10368Z" fill="#D2AB6B"/>
<path d="M11.991 19.9815H6.23153C2.98267 19.9815 0.3396 17.182 0.3396 13.7409V7.05066C0.3396 3.6096 2.9827 0.810097 6.23153 0.810097H11.9909C15.2398 0.810097 17.8829 3.6096 17.8829 7.05066V13.7409C17.8829 17.182 15.2398 19.9815 11.991 19.9815ZM6.23153 2.30783C3.76242 2.30783 1.75366 4.43545 1.75366 7.05066V13.7409C1.75366 16.3561 3.76242 18.4837 6.23153 18.4837H11.9909C14.4601 18.4837 16.4688 16.3561 16.4688 13.7409V7.05066C16.4688 4.43545 14.4601 2.30783 11.9909 2.30783H6.23153Z" fill="#D2AB6B"/>
</svg>
