<svg width="16" height="18" viewBox="0 0 16 18" fill="none" xmlns="http://www.w3.org/2000/svg">
<path d="M0.42547 17.742H3.76589L3.76184 5.34606H0.421448L0.42547 17.742Z" fill="#D2AB6B"/>
<path d="M15.2869 8.66228C15.2051 8.16893 15.0725 7.68326 14.8693 7.23011C14.7519 6.96834 14.604 6.72095 14.4288 6.49802C14.2242 6.23798 13.9521 5.99861 13.6757 5.8282C13.439 5.68219 13.169 5.54966 12.9048 5.47028C12.7482 5.42791 12.5873 5.39878 12.424 5.37931C11.9339 5.3209 11.423 5.34919 10.932 5.38927C10.791 5.40667 10.651 5.42774 10.5123 5.45297C10.3736 5.4782 10.2361 5.50762 10.1004 5.54067C9.86097 5.61885 9.65266 5.74213 9.47465 5.90385C9.29663 6.06561 9.14891 6.26584 9.03022 6.49762C8.96213 6.63065 8.90318 6.77101 8.86475 6.91705C8.86277 6.92474 8.82807 7.09745 8.83521 7.09745H8.78323L8.77915 5.34603H5.44L5.44406 17.7447H8.76111C8.76111 17.7447 8.76111 11.0957 8.76111 10.1863C8.76111 9.76375 9.0174 9.41165 9.34619 9.20043C9.66501 8.99564 10.0592 8.9773 10.4217 8.95244C10.5871 8.94109 10.7595 8.94678 10.9242 8.96479C11.2103 8.99611 11.4986 9.09186 11.7125 9.30371C12.0696 9.65748 12.1249 10.197 12.1249 10.6857C12.1249 11.0805 12.1249 11.4754 12.1249 11.8702C12.1249 12.4667 12.1249 13.0631 12.1249 13.6596C12.1249 14.2978 12.1249 14.9359 12.1249 15.574C12.1249 16.092 12.1249 16.6099 12.1249 17.1279C12.1249 17.3336 12.1249 17.5391 12.1249 17.7447H15.4107C15.4107 17.5394 15.4107 17.334 15.4107 17.1286C15.4107 16.6019 15.4107 16.0752 15.4107 15.5484C15.4107 14.8999 15.4107 14.2512 15.4107 13.6027C15.4107 12.5401 15.4107 11.4776 15.4107 10.4151C15.4107 9.83071 15.3825 9.23894 15.2869 8.66228Z" fill="#D2AB6B"/>
<path d="M2.09587 4.51522C3.02261 4.51522 3.77389 3.71949 3.77389 2.73791C3.77389 1.75632 3.02261 0.960594 2.09587 0.960594C1.16912 0.960594 0.417847 1.75632 0.417847 2.73791C0.417847 3.71949 1.16912 4.51522 2.09587 4.51522Z" fill="#D2AB6B"/>
</svg>
