<svg width="37" height="31" viewBox="0 0 37 31" fill="none" xmlns="http://www.w3.org/2000/svg">
<g clip-path="url(#clip0_1_862)">
<path d="M35.818 27.784L27.0119 20.358C29.2761 18.1756 30.5167 15.4298 30.5167 12.5712C30.5167 5.89251 23.815 0.45874 15.5779 0.45874C7.34084 0.45874 0.639191 5.89251 0.639191 12.5712C0.639191 19.25 7.34084 24.6837 15.5779 24.6837C18.6702 24.6837 21.6171 23.9275 24.1365 22.4919L33.0095 29.9742C33.3803 30.2865 33.8792 30.4587 34.4137 30.4587C34.9197 30.4587 35.3997 30.3023 35.764 30.018C36.5383 29.4139 36.563 28.4123 35.818 27.784ZM15.5779 3.61852C21.6664 3.61852 26.6196 7.6346 26.6196 12.5712C26.6196 17.5079 21.6664 21.5239 15.5779 21.5239C9.48942 21.5239 4.53625 17.5079 4.53625 12.5712C4.53625 7.6346 9.48942 3.61852 15.5779 3.61852Z" fill="white"/>
</g>
<defs>
<clipPath id="clip0_1_862">
<rect width="37" height="30" fill="white" transform="translate(0 0.45874)"/>
</clipPath>
</defs>
</svg>
