<svg width="46" height="30" viewBox="0 0 46 30" fill="none" xmlns="http://www.w3.org/2000/svg">
<g clip-path="url(#clip0_1_868)">
<path d="M42.9499 29.0139L39.4538 7.30063C39.3804 6.84607 38.7929 6.50092 38.0921 6.50092H31.5208V5.52382C31.5208 2.4781 27.7211 0 23.051 0C18.3805 0 14.5808 2.4781 14.5808 5.52382V6.50092H8.00956C7.30871 6.50092 6.72122 6.84607 6.64787 7.30063L3.15169 29.0139C3.11133 29.2655 3.23662 29.5165 3.49597 29.7047C3.75568 29.8926 4.12558 29.9999 4.51338 29.9999H41.5879C41.976 29.9999 42.3459 29.8926 42.6053 29.7047C42.8654 29.5165 42.9903 29.2655 42.9499 29.0139ZM17.3189 5.52382C17.3189 3.46275 19.8903 1.78573 23.051 1.78573C26.2113 1.78573 28.7827 3.46275 28.7827 5.52382V6.50092H17.3189V5.52382ZM6.0337 28.2142L9.24245 8.28665H14.5808V10.2543C14.5808 10.7474 15.1939 11.1472 15.9498 11.1472C16.7058 11.1472 17.3189 10.7474 17.3189 10.2543V8.28665H28.7827V10.2543C28.7827 10.7474 29.3958 11.1472 30.1518 11.1472C30.9077 11.1472 31.5208 10.7474 31.5208 10.2543V8.28665H36.8592L40.0679 28.2142H6.0337Z" fill="white"/>
</g>
<defs>
<clipPath id="clip0_1_868">
<rect width="46" height="30" fill="white"/>
</clipPath>
</defs>
</svg>
