<svg width="19" height="17" viewBox="0 0 19 17" fill="none" xmlns="http://www.w3.org/2000/svg">
<path d="M16.6141 2.95452C16.6141 2.95452 18.2696 1.47882 18.2171 0.820284C18.2171 0.820284 16.307 1.70887 15.8875 1.74855C15.8875 1.74855 15.7547 1.60699 15.5373 1.42087C15.4648 1.35884 15.3829 1.29184 15.2934 1.22351C15.1276 1.09527 14.953 0.985068 14.7717 0.891709C14.6811 0.845046 14.5888 0.802544 14.4953 0.763902C13.8863 0.481263 13.2191 0.412035 12.5643 0.48792C12.4707 0.49877 12.3774 0.512582 12.2846 0.529124C11.1984 0.709218 10.2695 1.4074 9.68499 2.35932C9.63251 2.44616 9.58387 2.53529 9.53953 2.62668C9.45098 2.80947 9.37961 3.00132 9.32943 3.20145C9.30973 3.27534 9.28817 3.36137 9.26784 3.45323C9.24748 3.5451 9.22828 3.64278 9.21329 3.73997C9.15336 4.12875 9.21329 5.39024 9.21329 5.39024C9.21329 5.39024 4.38181 5.54893 1.28065 1.29633C1.28065 1.29633 -0.247419 4.35883 2.38927 6.50099C2.38927 6.50099 1.85306 6.75487 0.840246 6.12017C0.840246 6.12017 0.33684 8.45271 3.60276 10.0553H2.0148C2.0148 10.0553 2.56911 12.6418 5.52048 12.8798C5.52048 12.8798 4.12722 14.8633 0.0822144 14.5618C0.0822144 14.5618 3.73175 17.2495 8.43354 16.0021C8.51747 15.9798 8.60178 15.9563 8.68641 15.9315C9.43058 15.6884 10.1797 15.4028 10.86 15.0197C10.9194 14.9872 10.9788 14.9538 11.0382 14.9196C11.2166 14.8174 11.3957 14.7085 11.5755 14.5929C11.5755 14.5929 16.5191 11.7558 16.9235 4.42533C16.9235 4.42533 17.9625 3.77961 18.6291 2.54195C18.6291 2.54198 16.7565 3.00212 16.6141 2.95452Z" fill="#D2AB6B"/>
</svg>
